<svg width="16" height="16" viewBox="0 0 16 16" fill="none" xmlns="http://www.w3.org/2000/svg">
<path d="M7.13477 2.17767C7.4444 1.84592 7.99998 2.0647 8 2.51849V13.4814C8 13.9352 7.44441 14.154 7.13477 13.8222L4.57422 11.079C4.527 11.0285 4.46074 11 4.3916 10.9999H3C2.44772 10.9999 2 10.5522 2 9.99994V5.99994C2.00004 5.44769 2.44774 4.99994 3 4.99994H4.3916C4.46077 4.99987 4.527 4.97139 4.57422 4.92084L7.13477 2.17767ZM9 2.99994C11.7614 2.99994 14 5.23856 14 7.99994C14 10.7614 11.7614 12.9999 9 12.9999V11.9999C11.2091 11.9999 13 10.2091 13 7.99994C13 5.79084 11.2091 3.99994 9 3.99994V2.99994ZM5.30566 5.60248C5.30566 5.60248 4.93466 5.99982 4.3916 5.99994H3V9.99994H4.3916C4.40454 10 4.93954 10.0051 5.30566 10.3974L7 12.2128V3.78705L5.30566 5.60248ZM9 4.99994C10.6568 4.99994 12 6.34312 12 7.99994C12 9.65679 10.6569 10.9999 9 10.9999V9.99994C10.1046 9.99994 11 9.10451 11 7.99994C11 6.8954 10.1045 5.99994 9 5.99994V4.99994Z" fill="#222222"/>
</svg>
